PathFileType	3	(X/Y/Z)	C:\Users\hrist\Documents\PhD\NeuroM Model Experiments\Complete_Controller_Data_Collection\S2_M\LG_Walk_Slower\LG_Walk_Slower01.trc																																																																																																							
DataRate	CameraRate	NumFrames	NumMarkers	Units	OrigDataRate	OrigDataStartFrame	OrigNumFrames																																																																																																			
100	100	8	35	mm	100	852	481																																																																																																			
Frame#	Time	R.ASIS			L.ASIS			V.Sacral			R.Thigh.Upper			R.Knee.Med			R.Knee.Lat			R.Thigh.Rear			R.Thigh.Front			L.Thigh.Upper			L.Knee.Med			L.Knee.Lat			L.Thigh.Rear			L.Thigh.Front			R.Shank.Upper			R.Ankle.Med			R.Ankle.Lat			R.Shank.Front			R.Shank.Rear			L.Shank.Upper			L.Ankle.Med			L.Ankle.Lat			L.Shank.Front			L.Shank.Rear			R.Toe.Tip			R.Heel			R.Toe.Med			R.Toe.Lat			R.Midfoot.Lat			R.Midfoot.Sup			L.Heel			L.Toe.Tip			L.Toe.Med			L.Toe.Lat			L.Midfoot.Lat			L.Midfoot.Sup		
		X1	Y1	Z1	X2	Y2	Z2	X3	Y3	Z3	X4	Y4	Z4	X5	Y5	Z5	X6	Y6	Z6	X7	Y7	Z7	X8	Y8	Z8	X9	Y9	Z9	X10	Y10	Z10	X11	Y11	Z11	X12	Y12	Z12	X13	Y13	Z13	X14	Y14	Z14	X15	Y15	Z15	X16	Y16	Z16	X17	Y17	Z17	X18	Y18	Z18	X19	Y19	Z19	X20	Y20	Z20	X21	Y21	Z21	X22	Y22	Z22	X23	Y23	Z23	X24	Y24	Z24	X25	Y25	Z25	X26	Y26	Z26	X27	Y27	Z27	X28	Y28	Z28	X29	Y29	Z29	X30	Y30	Z30	X31	Y31	Z31	X32	Y32	Z32	X33	Y33	Z33	X34	Y34	Z34	X35	Y35	Z35
852	8.51	-144.3567699	968.1649909	481.2328393	119.1217789	982.211922	493.7781894	-0.528851907	1006.526895	304.2460397	-180.3066568	745.3976973	365.3975574	-3.723967635	496.2191298	363.1096631	-137.5528838	489.6359649	338.0222846	-157.7322792	638.6748733	353.0173046	-100.3823236	684.517648	495.7215239	184.6743389	793.5063571	439.8363427	30.17741502	511.0356201	584.7160229	161.4159047	505.5663583	568.9786438	172.966339	648.740649	508.5637131	113.4080939	749.745137	591.2851434	-132.4598852	442.3515591	319.8468405	13.30001882	107.2604345	210.0750808	-65.91591454	85.777862	166.2655401	-73.67370103	374.2737649	364.3506558	-135.7724259	366.8544904	277.2353093	167.8995922	468.4644638	582.1621882	70.5273243	118.3241556	741.0866423	152.8199407	94.13533524	708.4823084	123.134243	450.6989368	653.7905759	179.6995654	400.6154025	606.4356591	-37.49178552	34.61545168	359.6277477	-11.2560589	51.92538827	97.65365692	-2.808327888	30.38434828	314.7805287	-109.7966885	27.17114635	295.8951032	-99.4975554	37.28706784	253.5841987	-7.657166373	56.26420994	282.5564923	95.81129188	27.41957726	679.1057983	136.255934	145.5043261	905.0199907	95.73822075	114.6506763	873.1190075	200.9781904	96.75149033	856.1398338	189.6336787	92.48253378	818.9282402	92.32004899	112.603686	834.9380964
853	8.52	-143.3829151	967.353801	486.788869	120.0815819	981.3819079	501.3966033	1.075403252	1006.482969	310.5298728	-179.4244228	745.4651124	369.1906895	-3.6984414	495.5663522	366.4847085	-137.3975108	489.7049666	340.4352763	-157.0791422	638.655393	356.3755933	-100.4390459	683.4123968	499.7393092	185.8485182	792.3700717	446.4282507	30.26498069	508.5713956	587.5813398	161.7074628	503.4628321	572.7662691	173.4398591	646.8810045	513.1702313	114.2971379	747.2485009	597.4607291	-132.7169839	442.4822992	321.9504348	12.85408815	107.7783967	210.6155465	-66.23314751	86.60754131	166.5036842	-74.01203718	374.2850207	367.362101	-135.762914	367.408501	278.8222433	168.0614117	466.2647265	585.8642573	69.49968347	115.605828	742.6264135	152.215939	91.90792764	710.9137326	122.6430187	448.1143769	657.0881998	179.7972521	398.5384744	610.3104037	-37.52694398	34.62873544	359.6454553	-11.51990168	52.97944838	97.90353344	-2.964866671	30.49676239	314.789017	-109.9736468	27.23758159	295.9379445	-99.7095421	37.1969552	253.6572999	-8.048984694	56.56875893	282.7514146	95.8886076	26.748404	679.9777961	132.9877787	141.8333689	907.5963684	93.11424766	110.897434	874.9994796	198.5753477	93.48260861	859.2118246	187.7617662	89.54311005	821.9715042	90.15975406	109.0813257	836.9859839
854	8.53	-142.3717325	966.5181867	492.5061188	121.0425259	980.5509916	509.1879192	2.749461116	1006.50899	316.8810898	-178.1574949	745.5624035	373.1890065	-3.694964606	494.9157563	369.9009855	-137.1988805	489.8606958	342.7604926	-156.358642	638.7523446	359.6919876	-100.5942646	682.2528556	503.8293772	187.0858688	791.2926107	453.1953489	30.44429511	506.0517858	590.1807595	162.0995409	501.3464252	576.3221603	174.0013092	645.1714092	517.985817	114.8726721	744.4851077	603.4755954	-132.9219164	442.7626375	323.9973778	12.27435167	108.3405999	211.1558943	-66.60048722	87.42464783	166.7454736	-74.51998816	374.1518013	369.8699941	-135.8059655	368.1101498	280.3259497	168.3197793	464.0619487	589.2847396	68.56113055	113.1889467	744.6300487	151.6429643	90.00560963	713.6655466	122.2734674	445.6605469	660.2564363	179.8716038	396.4225492	613.868786	-37.5732606	34.66586317	359.6347474	-11.8698177	54.07968401	98.13533515	-3.158388912	30.63107863	314.7796822	-110.1441864	27.18583823	295.9130788	-99.97096697	37.08776	253.7394921	-8.536505465	56.94442757	282.9260108	95.94104194	26.73334083	681.0442742	130.2538157	138.2063491	910.5592215	91.03662925	107.1025094	877.2331776	196.5932096	90.26347098	862.2134413	186.1490323	86.71275609	825.0237086	88.38875084	105.4615255	839.4818655
855	8.54	-141.3227699	965.6751399	498.3680933	122.0082307	979.780639	517.0788417	4.49913488	1006.597868	323.2951189	-176.7815715	745.6888627	377.265786	-3.693808211	494.2697417	373.4112315	-136.974506	490.1258085	345.068422	-155.5580872	638.9424622	363.0131621	-100.8027882	681.0827371	507.9907304	188.4242959	790.3890738	460.1653074	30.75924179	503.5649939	592.4715242	162.624461	499.3596052	579.6753444	174.7001056	643.712297	523.0228091	115.1467472	741.6427606	609.375789	-132.9316287	443.2030558	325.9542856	11.5617326	108.9864154	211.725871	-67.02513803	88.21968472	166.9079717	-75.19370196	373.8686751	371.8582624	-135.8681081	368.9734083	281.7962575	168.6819525	462.1329963	592.5588165	67.83082186	111.1837022	747.2696565	151.2087116	88.46709952	716.7514021	122.0319269	443.5867429	663.4171294	179.9760963	394.4701149	617.2300279	-37.62840816	34.71921877	359.6060192	-12.32805333	55.28401351	98.35096175	-3.38526547	30.78502506	314.7638411	-110.3139257	27.08406853	295.8859854	-100.2600388	36.93723524	253.8033821	-9.108339012	57.38073773	283.1037605	95.90789684	27.16454543	682.4028497	128.299314	134.3964916	913.9307301	89.70567332	103.1699817	879.8775351	195.2837901	87.02312218	865.1119433	184.959259	83.89046844	828.0014369	87.18493107	101.6968702	842.4624397
856	8.55	-140.2379371	964.8548245	504.3468685	122.9810533	979.1503246	525.0001532	6.329723809	1006.741991	329.7675553	-175.4931657	745.8516433	381.3381156	-3.688496381	493.6456248	377.0590737	-136.7257636	490.492504	347.4210578	-154.6866823	639.1976034	366.39113	-101.0214447	679.9522736	512.2317659	189.8687855	789.7827947	467.3463884	31.25965897	501.2994494	594.4698019	163.3213737	497.7192946	583.0264067	175.5632935	642.5441438	528.2023166	115.1823998	738.945433	615.1982213	-132.720987	443.7817509	327.8898787	10.77030784	109.7438076	212.3689627	-67.51779695	89.09525213	167.000345	-75.92724788	373.6134099	373.7534126	-135.8925636	369.9820581	283.3243317	169.1892583	460.6779579	595.9117569	67.39454909	109.5818706	750.3914634	151.0079222	87.27674575	719.9103522	121.9323905	442.0331914	666.704995	180.2434383	392.9331455	620.6722008	-37.68916387	34.78020149	359.5806305	-12.82982723	56.64839197	98.62229948	-3.626082114	30.94616134	314.7589291	-110.4502186	26.94089952	295.8782146	-100.5665974	36.77271122	253.8675391	-9.713502285	57.84486662	283.3135598	95.79635766	27.88335813	683.9137053	127.2128636	130.0119875	917.514275	89.14823129	98.81204479	882.8098367	194.7148593	83.47124602	867.7740977	184.326203	80.93228401	830.7931547	86.6083218	97.68123478	845.7650342
857	8.56	-139.1238725	964.1079236	510.4174015	123.9565769	978.7399747	532.8956892	8.245883573	1006.933392	336.2941697	-174.3643154	746.0896294	385.4344458	-3.648503417	493.0895415	380.8642495	-136.4147268	490.9305754	349.8901024	-153.743375	639.5110787	369.8793463	-101.2053766	678.9129843	516.5842159	191.3849469	789.5567874	474.7001368	31.9509354	499.5071445	596.3827064	164.2079896	496.5977811	586.7074735	176.6114584	641.7261733	533.5639421	115.0651309	736.6003569	620.9665117	-132.3751907	444.5123288	330.0348443	9.986723719	110.6105302	213.1237673	-68.04884661	90.1842857	167.1815088	-76.59464751	373.4884275	375.8022564	-135.81874	371.0680619	284.9959078	169.8859993	459.7294263	599.5782564	67.25381777	108.2814417	753.6731091	151.0511799	86.37506029	722.8587565	122.0062528	440.9615025	670.2419568	180.7695556	391.8934217	624.3904974	-37.75138707	34.83957608	359.5806488	-13.25529563	58.20446193	99.05362982	-3.852656101	31.09097486	314.7755118	-110.5163264	26.72318257	295.8433482	-100.8744365	36.64330067	253.9721224	-10.29572101	58.31380474	283.5954223	95.65407356	28.77097496	685.3956677	126.9418619	124.8317973	921.0727879	89.26057962	93.83774429	885.8442653	194.8004726	79.40917811	870.1098264	184.2752882	77.74200479	833.3186537	86.5960778	93.40300402	849.1708117
858	8.57	-137.9831449	963.4873279	516.5695617	124.9303731	978.6095483	540.7246729	10.25149675	1007.163895	342.870904	-173.3790899	746.4510683	389.6365097	-3.536592293	492.659509	384.8464621	-135.9937464	491.4119575	352.5608323	-152.7117132	639.9014729	373.5343131	-101.3024658	678.0046882	521.085475	192.9308177	789.7348145	482.1583003	32.79948503	498.3713471	598.572849	165.2704712	495.9929363	590.9832631	177.8726121	641.3236428	539.2650754	114.8756944	734.7760601	626.7009677	-132.0271228	445.3629675	332.5096488	9.263936481	111.5754052	214.0114286	-68.55606661	91.54119303	167.6309607	-77.09056265	373.5213236	378.0747787	-135.6261529	372.1717906	286.8752836	170.7906027	459.1736339	603.7189774	67.35008086	107.1654189	756.8641775	151.2829942	85.68466607	725.4980115	122.2889311	440.2046541	674.1085505	181.5632648	391.2228369	628.42013	-37.81094829	34.88745206	359.6169481	-13.56188247	59.97716188	99.67525849	-4.037224981	31.18481093	314.7992996	-110.5246869	26.4671786	295.7659949	-101.1620307	36.5926651	254.1473808	-10.82167443	58.80698509	284.0169507	95.51377977	29.72067761	686.7675791	127.3234383	119.0453316	924.4670048	89.87617775	88.43593672	888.8079824	195.3879199	74.98552446	872.1556776	184.7086337	74.38172449	835.5548923	87.01269923	89.02387632	852.4872953
859	8.58	-136.8019681	963.0137222	522.8094214	125.9160854	978.792569	548.4557312	12.34954332	1007.425312	349.4938798	-172.3749824	746.9285386	394.0242796	-3.361018699	492.3722995	389.0460511	-135.4729202	491.993164	355.5272976	-151.596064	640.3912777	377.4141117	-101.2588791	677.2404978	525.7502925	194.4818007	790.2871147	489.6682598	33.78822385	497.8728334	601.3855314	166.4848513	495.7573003	595.9134026	179.3708355	641.3600859	545.4869633	114.6751573	733.5775625	632.4251008	-131.7504398	446.2555616	335.2416646	8.595113177	112.6433539	215.0461123	-69.00222225	93.12382491	168.3674096	-77.38966512	373.7099092	380.6025292	-135.3749821	373.3138247	289.0014712	171.9092886	458.8155848	608.3734656	67.58764688	106.1570496	759.849743	151.6132283	85.12380895	727.8826483	122.7855264	439.598882	678.3364931	182.5661911	390.7409159	632.7432992	-37.86521416	34.91953688	359.6897935	-13.84835226	62.00701416	100.3812513	-4.163159563	31.19974819	314.8081739	-110.5109269	26.25055275	295.6913213	-101.4199711	36.63955882	254.39891	-11.27950031	59.3638432	284.6396131	95.38253527	30.64085759	688.0362322	128.080002	113.1800209	927.6292229	90.76391283	83.10063234	891.5497307	196.2527868	70.6038075	873.9933648	185.416278	71.07282508	837.5137897	87.6667592	84.80391785	855.539194
